<svg width="52" height="45" viewBox="0 0 52 45" fill="none" xmlns="http://www.w3.org/2000/svg">
<path d="M50.0315 22.5C50.0315 34.269 39.2875 44 25.7854 44C12.2833 44 1.53937 34.269 1.53937 22.5C1.53937 10.731 12.2833 1 25.7854 1C39.2875 1 50.0315 10.731 50.0315 22.5Z" stroke="white" stroke-opacity="0.15" stroke-width="2"/>
<path d="M17.1713 19.8415H17.3391C18.9006 19.8415 20.1405 19.6691 21.0588 19.3244C21.2639 19.6124 21.3665 19.9244 21.3665 20.2604C21.3665 20.5004 21.2709 20.6727 21.0798 20.7775C20.8887 20.8822 20.5018 20.9345 19.9191 20.9345L14.1298 20.9411C14.0459 20.7491 14.0039 20.5636 14.0039 20.3847C14.0039 20.2669 14.0389 20.1818 14.1088 20.1295C14.1787 20.0727 14.2813 20.0444 14.4164 20.0444H14.9268C14.9548 19.4815 14.9688 18.0175 14.9688 15.6524C14.9688 14.3738 14.9525 13.4553 14.9199 12.8967H14.1298C14.0459 12.7047 14.0039 12.5215 14.0039 12.3469C14.0039 12.2247 14.0389 12.1375 14.1088 12.0851C14.1787 12.0284 14.2813 12 14.4164 12H18.1012C18.1805 12.1615 18.2201 12.3229 18.2201 12.4844C18.2201 12.6415 18.1898 12.7505 18.1292 12.8116C18.0686 12.8684 17.973 12.8967 17.8425 12.8967H17.1643C17.141 13.4553 17.1293 14.376 17.1293 15.6589C17.1293 18.0196 17.1433 19.4138 17.1713 19.8415Z" fill="white"/>
<path d="M22.4852 12H26.3098C26.389 12.1615 26.4287 12.3229 26.4287 12.4844C26.4287 12.6415 26.3984 12.7505 26.3378 12.8116C26.2772 12.8684 26.1793 12.8967 26.0441 12.8967H25.3659C25.3426 13.4553 25.3333 14.376 25.3379 15.6589C25.3379 18.0196 25.3496 19.4793 25.3729 20.0378H26.3098C26.389 20.1949 26.4287 20.3564 26.4287 20.5222C26.4287 20.6749 26.3984 20.7818 26.3378 20.8429C26.2772 20.904 26.1793 20.9345 26.0441 20.9345H22.1985C22.1146 20.7425 22.0727 20.5571 22.0727 20.3782C22.0727 20.2604 22.1076 20.1753 22.1775 20.1229C22.2475 20.0662 22.35 20.0378 22.4852 20.0378H23.1354C23.1587 19.4793 23.1704 18.0175 23.1704 15.6524C23.1657 14.3738 23.1518 13.4553 23.1284 12.8967H22.1985C22.1146 12.7047 22.0727 12.5215 22.0727 12.3469C22.0727 12.2247 22.1076 12.1375 22.1775 12.0851C22.2475 12.0284 22.35 12 22.4852 12Z" fill="white"/>
<path d="M28.2606 12H31.2601C31.8847 13.1215 32.4861 14.16 33.0641 15.1156C33.6421 16.0713 34.2341 17.256 34.84 18.6698V15.6524C34.84 14.3738 34.826 13.4553 34.7981 12.8967H34.008C33.9287 12.7047 33.8891 12.5215 33.8891 12.3469C33.8891 12.2247 33.9241 12.1375 33.994 12.0851C34.0639 12.0284 34.1665 12 34.3016 12H37.448C37.5273 12.1615 37.5669 12.3229 37.5669 12.4844C37.5669 12.6415 37.5366 12.7505 37.476 12.8116C37.4154 12.8684 37.3175 12.8967 37.1823 12.8967H36.574C36.5554 13.4553 36.5461 14.376 36.5461 15.6589V20.0509C36.5461 20.4655 36.4948 20.7273 36.3922 20.8364C36.2897 20.9455 36.0193 21 35.5812 21C34.7095 21 34.2154 20.9695 34.0989 20.9084C33.9823 20.8473 33.5162 20.1862 32.7005 18.9251C31.8847 17.664 31.1319 16.2545 30.4421 14.6967C30.4421 17.6989 30.4537 19.4793 30.477 20.0378H31.2042C31.2834 20.1949 31.3231 20.3564 31.3231 20.5222C31.3231 20.6749 31.2928 20.7818 31.2322 20.8429C31.1716 20.904 31.076 20.9345 30.9455 20.9345H27.8341C27.7502 20.7425 27.7082 20.5571 27.7082 20.3782C27.7082 20.2604 27.7432 20.1753 27.8131 20.1229C27.883 20.0662 27.9855 20.0378 28.1207 20.0378H28.7011C28.729 19.4793 28.743 18.0175 28.743 15.6524C28.7384 14.3738 28.722 13.4553 28.6941 12.8967H27.9739C27.89 12.7047 27.848 12.5215 27.848 12.3469C27.848 12.2247 27.883 12.1375 27.9529 12.0851C28.0228 12.0284 28.1254 12 28.2606 12Z" fill="white"/>
<path d="M21.5278 33.3089C21.5278 32.3172 21.516 31.7013 21.4924 31.4612C21.4688 31.2159 21.4334 31.041 21.3862 30.9367C21.3448 30.8323 21.274 30.7592 21.1737 30.7174C21.0793 30.6705 20.9583 30.647 20.8108 30.647C20.7046 30.4695 20.6515 30.2947 20.6515 30.1224C20.6515 29.9189 20.7016 29.7753 20.8019 29.6918C20.9082 29.6083 21.0881 29.5665 21.3419 29.5665H23.2715C23.6669 29.5665 23.9325 29.624 24.0682 29.7388C24.2039 29.8536 24.2718 30.0859 24.2718 30.4356V32.0719C24.2718 32.7609 24.3013 33.6586 24.3603 34.7651C24.0357 34.8173 23.6433 34.8434 23.183 34.8434C23.0591 34.8434 22.8319 34.6607 22.5015 34.2954C21.4157 34.7651 20.3033 35 19.1644 35C17.341 35 16.025 34.6059 15.2166 33.8178C14.4081 33.0297 14.0039 31.7561 14.0039 29.9972C14.0039 27.9616 14.538 26.4531 15.606 25.4719C16.68 24.4906 18.2291 24 20.2531 24C21.5219 24 22.3952 24.0809 22.8732 24.2427C23.3512 24.3993 23.5902 24.6864 23.5902 25.1039C23.5902 25.5058 23.4073 25.9103 23.0414 26.3174C21.8671 25.7746 20.7252 25.5032 19.6158 25.5032C18.7956 25.5032 18.1612 25.7616 17.7127 26.2783C17.2702 26.795 17.0489 27.7711 17.0489 29.2064C17.0489 30.8871 17.2672 32.0223 17.7039 32.6121C18.1406 33.2019 18.8988 33.4968 19.9787 33.4968C20.498 33.4968 21.0144 33.4342 21.5278 33.3089Z" fill="#FEED7D"/>
<path d="M26.2368 29.9972C26.2368 27.9616 26.7709 26.4531 27.839 25.4719C28.913 24.4906 30.3764 24 32.2294 24C33.9761 24 35.3009 24.3601 36.2038 25.0804C37.1125 25.7955 37.5669 27.103 37.5669 29.0028C37.5669 31.0384 37.0299 32.5469 35.9559 33.5281C34.8878 34.5094 33.4007 35 31.4947 35C29.7952 35 28.494 34.6425 27.5911 33.9274C26.6883 33.2071 26.2368 31.897 26.2368 29.9972ZM29.2818 29.2377C29.2818 30.9132 29.5208 32.0432 29.9988 32.6278C30.4768 33.2071 31.1436 33.4968 31.9992 33.4968C32.8962 33.4968 33.5394 33.2149 33.9289 32.6512C34.3184 32.0823 34.5131 31.1193 34.5131 29.7623C34.5131 28.0399 34.2741 26.8994 33.7961 26.3409C33.324 25.7824 32.6572 25.5032 31.7956 25.5032C30.8987 25.5032 30.2555 25.7877 29.866 26.3566C29.4765 26.9203 29.2818 27.8807 29.2818 29.2377Z" fill="#FEED7D"/>
</svg>
