<svg width="18" height="16" viewBox="0 0 18 16" fill="none" xmlns="http://www.w3.org/2000/svg">
<path opacity="0.7" fill-rule="evenodd" clip-rule="evenodd" d="M4.19573 6.65579C6.64264 2.22066 7.91357 0.536667 11.912 0.606485C13.3361 0.631114 12.9933 -0.262058 14.0788 0.0768637C15.1644 0.415785 14.2328 0.911741 15.3436 1.67883C18.4576 3.83234 18.1706 5.82452 16.7256 10.5719C16.117 12.572 18.1926 12.6701 17.3713 14.6082C16.7717 16.022 12.3522 16.6135 7.68717 15.1555C3.02324 13.6981 0.0800896 10.8051 0.679342 9.39201C1.50097 7.45293 3.1638 8.52347 4.19573 6.65579ZM8.19449 13.9612C12.3595 15.2631 15.7828 14.4978 15.9274 14.1573C16.1766 13.5703 14.583 11.6118 9.82057 10.1237C5.05819 8.6356 2.40098 9.18713 2.12334 9.84306C1.95891 10.2297 4.02814 12.6595 8.19449 13.9612ZM9.53199 10.8032C11.7093 11.4838 13.2236 12.2622 14.2021 12.9628C13.5138 13.4907 12.2217 13.6197 10.9341 13.217C9.29513 12.7053 8.28921 11.5297 8.68755 10.5913C8.69158 10.58 8.69909 10.5703 8.70418 10.5588C8.97243 10.6338 9.24792 10.714 9.53199 10.8032Z" fill="white"/>
</svg>
