<svg width="34" height="20" viewBox="0 0 34 20" fill="none" xmlns="http://www.w3.org/2000/svg">
<path d="M9.43591 0H24.288C26.6514 0 28.918 1.05357 30.5892 2.92893C32.2604 4.8043 33.1993 7.34784 33.1993 10C33.1993 12.6522 32.2604 15.1957 30.5892 17.0711C28.918 18.9464 26.6514 20 24.288 20C21.6443 20 19.2828 18.7167 17.6491 16.6667H16.0748C14.4411 18.7167 12.0796 20 9.43591 20C7.0725 20 4.80588 18.9464 3.1347 17.0711C1.46351 15.1957 0.524651 12.6522 0.524651 10C0.524651 7.34784 1.46351 4.8043 3.1347 2.92893C4.80588 1.05357 7.0725 0 9.43591 0ZM7.9507 5V8.33333H4.98028V11.6667H7.9507V15H10.9211V11.6667H13.8915V8.33333H10.9211V5H7.9507ZM22.0602 10C21.4693 10 20.9027 10.2634 20.4849 10.7322C20.0671 11.2011 19.8324 11.837 19.8324 12.5C19.8324 13.163 20.0671 13.7989 20.4849 14.2678C20.9027 14.7366 21.4693 15 22.0602 15C22.651 15 23.2177 14.7366 23.6355 14.2678C24.0533 13.7989 24.288 13.163 24.288 12.5C24.288 11.837 24.0533 11.2011 23.6355 10.7322C23.2177 10.2634 22.651 10 22.0602 10ZM26.5158 5C25.925 5 25.3583 5.26339 24.9405 5.73223C24.5227 6.20107 24.288 6.83696 24.288 7.5C24.288 8.16304 24.5227 8.79893 24.9405 9.26777C25.3583 9.73661 25.925 10 26.5158 10C27.1067 10 27.6733 9.73661 28.0911 9.26777C28.5089 8.79893 28.7436 8.16304 28.7436 7.5C28.7436 6.83696 28.5089 6.20107 28.0911 5.73223C27.6733 5.26339 27.1067 5 26.5158 5Z" fill="#E7F6FF"/>
</svg>
