<svg width="29" height="30" viewBox="0 0 29 30" fill="none" xmlns="http://www.w3.org/2000/svg">
<path d="M24.7936 7.5H10.7901V4.5H24.7936V7.5ZM19.1922 19.5H10.7901V16.5H19.1922V19.5ZM24.7936 13.5H10.7901V10.5H24.7936V13.5ZM26.1939 0H9.38979C8.647 0 7.93464 0.31607 7.40941 0.87868C6.88418 1.44129 6.5891 2.20435 6.5891 3V21C6.5891 21.7956 6.88418 22.5587 7.40941 23.1213C7.93464 23.6839 8.647 24 9.38979 24H26.1939C26.9367 24 27.6491 23.6839 28.1743 23.1213C28.6995 22.5587 28.9946 21.7956 28.9946 21V3C28.9946 2.20435 28.6995 1.44129 28.1743 0.87868C27.6491 0.31607 26.9367 0 26.1939 0ZM3.78842 6H0.987732V27C0.987732 27.7957 1.2828 28.5587 1.80803 29.1213C2.33326 29.6839 3.04563 30 3.78842 30H23.3932V27H3.78842V6Z" fill="#FEED7D"/>
</svg>
