<svg width="29" height="30" viewBox="0 0 29 30" fill="none" xmlns="http://www.w3.org/2000/svg">
<path d="M10.5471 0C13.306 0 15.952 1.17398 17.9028 3.26367C19.8537 5.35336 20.9496 8.18759 20.9496 11.1429C20.9496 13.9029 20.0054 16.44 18.453 18.3943L18.8851 18.8571H20.1494L28.1514 27.4286L25.7508 30L17.7489 21.4286V20.0743L17.3168 19.6114C15.4923 21.2743 13.1237 22.2857 10.5471 22.2857C7.78817 22.2857 5.14224 21.1117 3.19138 19.022C1.24053 16.9324 0.144547 14.0981 0.144547 11.1429C0.144547 8.18759 1.24053 5.35336 3.19138 3.26367C5.14224 1.17398 7.78817 0 10.5471 0ZM10.5471 3.42857C6.54611 3.42857 3.34533 6.85714 3.34533 11.1429C3.34533 15.4286 6.54611 18.8571 10.5471 18.8571C14.5481 18.8571 17.7489 15.4286 17.7489 11.1429C17.7489 6.85714 14.5481 3.42857 10.5471 3.42857Z" fill="#E7F6FF"/>
</svg>
